<svg xmlns="http://www.w3.org/2000/svg" version="1.1" xmlns:xlink="http://www.w3.org/1999/xlink" xmlns:svgjs="http://svgjs.dev/svgjs" width="1500" height="1500" viewBox="0 0 1500 1500"><rect width="1500" height="1500" fill="#000000"></rect><g transform="matrix(0.6666666666666666,0,0,0.6666666666666666,249.39393939393938,609.3084051603118)"><svg viewBox="0 0 396 111" data-background-color="#398378" preserveAspectRatio="xMidYMid meet" height="420" width="1500" xmlns="http://www.w3.org/2000/svg" xmlns:xlink="http://www.w3.org/1999/xlink"><g id="tight-bounds" transform="matrix(1,0,0,1,0.2400000000000091,0.2741679543049145)"><svg viewBox="0 0 395.52 110.4516640913902" height="110.4516640913902" width="395.52"><g><svg viewBox="0 0 557.3460398528391 155.6426920926688" height="110.4516640913902" width="395.52"><g transform="matrix(1,0,0,1,161.8260398528391,21.510675969391997)"><svg viewBox="0 0 395.52 112.6213401538848" height="112.6213401538848" width="395.52"><g id="textblocktransform"><svg viewBox="0 0 395.52 112.6213401538848" height="112.6213401538848" width="395.52" id="textblock"><g><svg viewBox="0 0 395.52 73.79764472049689" height="73.79764472049689" width="395.52"><g transform="matrix(1,0,0,1,0,0)"><svg width="395.52" viewBox="1.15 -36.1 201.23 37.550000000000004" height="73.79764472049689" data-palette-color="#083344"><path d="M15.3-30.6Q16.6-32.25 17.93-33.68 19.25-35.1 20.1-35.45 20.95-35.8 23.55-35.8 26.15-35.8 26.15-35.15L26.15-35.15Q26.15-34.9 25.6-34.6 25.05-34.3 24.1-33.65 23.15-33 20.13-30.1 17.1-27.2 14.05-23.3L14.05-23.3Q13.95-23.2 13.95-23.03 13.95-22.85 14.23-22.8 14.5-22.75 15-22.65 15.5-22.55 16.82-21.88 18.15-21.2 19.2-20.18 20.25-19.15 21.23-17.03 22.2-14.9 22.35-13.03 22.5-11.15 22.65-9.65 22.8-8.15 23.43-5.35 24.05-2.55 24.9-2L24.9-2Q25.15-1.8 25.15-1.5L25.15-1.5Q25.15-0.7 22.95-0.03 20.75 0.65 19.03 0.65 17.3 0.65 17.05-0.75L17.05-0.75Q16.8-2.25 16.7-7.9L16.7-7.9 16.7-9.9Q16.7-15.15 15.2-17.5L15.2-17.5Q13.9-19.55 12.85-19.8L12.85-19.8Q12.05-20.05 12-20.05L12-20.05 11.45-19.8Q10.25-18.4 9.55-17.1 8.85-15.8 8.8-15.2L8.8-15.2 8.7-14.55Q8.7-7.5 9.3-2.5L9.3-2.5Q9.4-1.9 9.4-1.8L9.4-1.8Q9.4-0.7 7.08 0.1 4.75 0.9 3.28 0.9 1.8 0.9 1.8 0.45L1.8 0.45Q1.8 0.15 1.95-0.3L1.95-0.3Q2.45-1.4 2.68-7.58 2.9-13.75 2.9-18.82 2.9-23.9 2.7-27.05L2.7-27.05Q2.4-31.8 1.7-32.75L1.7-32.75Q1.15-33.45 1.15-33.65L1.15-33.65Q1.15-34.35 3.73-35 6.3-35.65 7.88-35.65 9.45-35.65 9.45-34.95L9.45-34.95 9.4-34.3Q8.75-28.9 8.75-22.75L8.75-22.75Q8.75-22.25 8.97-22.25 9.2-22.25 9.5-22.7 9.8-23.15 10.38-23.95 10.95-24.75 12.48-26.85 14-28.95 15.3-30.6ZM31.4-26.75L31.4-26.75 30.2-26.8Q28.85-26.8 28.45-26.15L28.45-26.15Q28.35-26 28.2-26L28.2-26Q27.55-26 27.55-28.23 27.55-30.45 28.22-31.05 28.9-31.65 30.57-31.65 32.25-31.65 32.85-31.08 33.45-30.5 33.45-29.15 33.45-27.8 33-27.28 32.55-26.75 31.4-26.75ZM27.4-1.5L27.4-1.5 27.95-13.15Q27.95-17.3 27-18.8L27-18.8Q26.7-19.3 26.3-19.55L26.3-19.55Q26-19.65 26-19.95L26-19.95Q26-20.85 28.55-21.7 31.1-22.55 32.27-22.55 33.45-22.55 33.5-21.95L33.5-21.95Q33.5-20.95 33.22-16.28 32.95-11.6 32.95-6.45 32.95-1.3 33.55-0.05L33.55-0.05Q33.7 0.2 33.7 0.45L33.7 0.45Q33.7 1.1 31.8 1.1 29.9 1.1 27.9 0.1L27.9 0.1Q27.4-0.15 27.4-1.5ZM46.75-22.45L46.75-22.45Q47.65-22.45 48.37-22.23 49.1-22 49.15-22L49.15-22 49.45-22.25 49.25-27.7Q49.15-29.1 48.65-30.1 48.15-31.1 47.75-31.4L47.75-31.4 47.3-31.65Q47-31.85 47-32.1L47-32.1Q47-32.85 49.32-33.85 51.65-34.85 52.95-34.85 54.25-34.85 54.35-34.3L54.35-34.3Q54.6-32.6 54.6-27.83 54.6-23.05 54.37-18.45 54.15-13.85 54.15-8.03 54.15-2.2 54.9-0.7L54.9-0.7Q55.1-0.35 55.1-0.05L55.1-0.05Q55.1 0.7 52.95 0.7L52.95 0.7Q48.85 0.7 48.85-1.25L48.85-1.25Q48.75-2.05 48.75-3.73 48.75-5.4 49.07-9.98 49.4-14.55 49.4-17.03 49.4-19.5 46.92-19.5 44.45-19.5 43.15-16.6 41.85-13.7 41.85-10.8L41.85-10.8Q41.85-4.65 44.95-4.65L44.95-4.65Q45.4-4.65 45.82-4.83 46.25-5 46.35-5L46.35-5Q46.75-5 46.97-4.5 47.2-4 47.2-3.5L47.2-3.5Q47.2-1.8 45.85-0.63 44.5 0.55 42.55 0.55L42.55 0.55Q39.55 0.55 38.02-2.08 36.5-4.7 36.5-8.6L36.5-8.6Q36.5-13.55 38.85-17.8L38.85-17.8Q40.05-19.9 42.1-21.18 44.15-22.45 46.75-22.45ZM63.24-9.2L62.59-11.7Q62.29-12.8 60.99-18.85 59.69-24.9 58.34-28.5 56.99-32.1 55.14-33.3L55.14-33.3Q54.64-33.55 54.64-33.95L54.64-33.95Q54.64-34.9 57.34-35.5 60.04-36.1 61.52-36.1 62.99-36.1 63.29-35.25L63.29-35.25Q64.19-33.4 65.59-26.95L65.59-26.95Q68.44-13.45 69.79-9.95L69.79-9.95Q70.09-9.25 70.54-9.25 70.99-9.25 71.47-10.13 71.94-11 72.77-12.63 73.59-14.25 74.99-18.4 76.39-22.55 76.39-25.6L76.39-25.6Q76.39-30.3 73.29-32.25L73.29-32.25Q73.04-32.55 73.04-32.9L73.04-32.9Q73.04-33.95 75.94-35 78.84-36.05 81.19-36.05L81.19-36.05Q82.74-36.05 82.74-34.6L82.74-34.6Q82.74-30.1 80.94-24.18 79.14-18.25 76.64-13.18 74.14-8.1 71.99-4.4L71.99-4.4Q68.59 1.35 67.69 1.35L67.69 1.35Q67.24 1.35 66.84 0.65L66.84 0.65Q65.34-1.5 63.24-9.2L63.24-9.2ZM86.14-12.7L86.14-12.7 86.19-11.45Q86.19-11.15 86.59-11.15L86.59-11.15Q88.19-11.3 89.39-11.98 90.59-12.65 91.19-13.5L91.19-13.5Q92.39-15.35 92.49-16.7L92.49-16.7 92.54-17.3Q92.54-20 90.39-20L90.39-20Q88.79-20 87.79-18.6L87.79-18.6Q86.14-16.4 86.14-12.7ZM97.04-6.05L97.04-6.05Q97.04-4.15 96.27-2.73 95.49-1.3 94.52-0.63 93.54 0.05 92.24 0.45L92.24 0.45Q90.59 0.95 89.09 0.95L89.09 0.95Q84.89 0.95 82.89-2.2 80.89-5.35 80.89-10.23 80.89-15.1 83.37-18.9 85.84-22.7 90.79-22.7L90.79-22.7Q95.29-22.7 96.89-19.55L96.89-19.55Q97.54-18.35 97.54-17.28 97.54-16.2 97.44-15.58 97.34-14.95 96.74-13.7 96.14-12.45 95.14-11.45 94.14-10.45 91.99-9.55 89.84-8.65 86.94-8.35L86.94-8.35Q86.54-8.35 86.54-8L86.54-8Q86.54-7.55 86.87-6.68 87.19-5.8 87.59-5.2L87.59-5.2Q88.69-3.8 90.84-3.8L90.84-3.8Q92.99-3.8 94.49-5.2L94.49-5.2Q95.29-5.95 95.79-7.05L95.79-7.05Q95.99-7.45 96.32-7.45 96.64-7.45 96.84-6.9 97.04-6.35 97.04-6.05ZM99.79 0.35L99.79 0.35Q100.69-5.05 100.69-12.6 100.69-20.15 100.24-22.4L100.24-22.4Q100.24-23.05 101.74-23.05L101.74-23.05Q104.04-23.05 104.79-21.3L104.79-21.3Q104.84-21.15 105.04-21.15 105.24-21.15 105.34-21.25L105.34-21.25Q106.89-22.85 110.14-22.85 113.39-22.85 115.29-21.2 117.19-19.55 117.19-16.4L117.19-16.4Q117.19-14.5 116.86-11 116.54-7.5 116.54-5.8L116.54-5.8Q116.54-1.75 117.89 0.05L117.89 0.05Q118.09 0.3 118.09 0.55L118.09 0.55Q118.09 1.2 116.69 1.2L116.69 1.2Q110.49 1.2 110.49-4.3L110.49-4.3Q110.49-6.4 111.44-10.15 112.39-13.9 112.39-15.85L112.39-15.85Q112.39-19.85 109.09-19.85L109.09-19.85Q107.49-19.85 106.66-18.9 105.84-17.95 105.74-16.73 105.64-15.5 105.64-12.1L105.64-12.1Q105.64-6.9 105.99-3.05L105.99-3.05 106.09-1.95Q106.09-0.55 104.26 0.23 102.44 1 101.11 1 99.79 1 99.79 0.35ZM118.99-19.5L118.99-19.5 119.14-21.5Q119.19-21.95 119.84-21.95L119.84-21.95 121.59-21.95 121.39-25.95 121.39-26.15Q121.39-27.3 123.14-28.35 124.89-29.4 126.34-29.4L126.34-29.4Q126.79-29.4 126.79-29L126.79-29 126.79-28.95Q126.59-27.6 126.39-22L126.39-22Q128.59-22 129.19-22.1 129.79-22.2 129.84-22.2L129.84-22.2Q130.19-22.2 130.19-21.6 130.19-21 129.64-20.08 129.09-19.15 128.44-19.1L128.44-19.1 126.34-19.1Q126.29-17.4 126.29-13.38 126.29-9.35 126.36-6.75 126.44-4.15 126.54-2.83 126.64-1.5 126.76-0.7 126.89 0.1 126.96 0.45 127.04 0.8 127.04 0.9L127.04 0.9Q127.04 1.4 126.39 1.45L126.39 1.45Q124.44 1.45 122.51 0.9 120.59 0.35 120.59-1L120.59-1Q121.64-9.4 121.64-19.05L121.64-19.05Q120.29-19.05 119.59-18.95L119.59-18.95 119.54-18.95Q119.09-18.95 118.99-19.5ZM148.63-22.25L148.63-22.25Q147.73-16.85 147.73-8.5L147.73-8.5Q147.73-2.35 148.23-0.4L148.23-0.4 148.43 0.25Q148.43 0.9 147.33 0.9L147.33 0.9Q143.48 0.9 142.93-1.25L142.93-1.25Q142.88-1.5 142.71-1.5 142.53-1.5 142.38-1.3L142.38-1.3Q140.83 0.75 137.58 0.75L137.58 0.75Q135.78 0.75 133.83-0.15L133.83-0.15Q132.63-0.7 131.88-2.08 131.13-3.45 131.13-5.45L131.13-5.45 131.88-16.4Q131.88-19.85 131.18-21.3L131.18-21.3Q130.93-21.85 130.93-22L130.93-22Q130.93-22.3 131.18-22.4L131.18-22.4Q131.98-22.65 133.23-22.65L133.23-22.65Q138.08-22.65 138.08-18.65L138.08-18.65Q138.08-17.4 137.06-12.95 136.03-8.5 136.03-6.63 136.03-4.75 136.86-3.75 137.68-2.75 139.16-2.75 140.63-2.75 141.48-3.8 142.33-4.85 142.48-5.9L142.48-5.9 142.63-6.95Q142.83-8.7 142.83-13.1 142.83-17.5 142.56-18.68 142.28-19.85 142.28-20.15L142.28-20.15Q142.28-21.4 144.28-22.13 146.28-22.85 147.88-22.85L147.88-22.85Q148.63-22.85 148.63-22.25ZM166.53-17.2L166.28-13.4 166.48-11.65Q166.48-10.7 164.68-10.7L164.68-10.7Q161.03-10.7 161.03-13.45L161.03-13.45Q161.03-14.1 161.38-15.25 161.73-16.4 161.73-17.25 161.73-18.1 161.23-18.73 160.73-19.35 159.78-19.35 158.83-19.35 158.16-18.68 157.48-18 157.33-17.3L157.33-17.3 157.13-16.6Q156.83-15.05 156.83-11.43 156.83-7.8 156.93-5.73 157.03-3.65 157.13-2.88 157.23-2.1 157.23-1.95L157.23-1.95Q157.23-0.7 155.68 0.08 154.13 0.85 152.58 0.85 151.03 0.85 151.03 0.2L151.03 0.2 151.28-1.35Q151.98-5.7 151.98-12.7 151.98-19.7 151.48-22.2L151.48-22.2Q151.48-22.8 152.53-22.8L152.53-22.8Q155.23-22.8 156.13-20.95L156.13-20.95Q156.18-20.75 156.31-20.75 156.43-20.75 156.98-21.2L156.98-21.2Q158.63-22.55 160.88-22.55L160.88-22.55Q162.28-22.55 163.68-22L163.68-22Q166.53-20.85 166.53-17.2L166.53-17.2ZM173.53-12.7L173.53-12.7 173.58-11.45Q173.58-11.15 173.98-11.15L173.98-11.15Q175.58-11.3 176.78-11.98 177.98-12.65 178.58-13.5L178.58-13.5Q179.78-15.35 179.88-16.7L179.88-16.7 179.93-17.3Q179.93-20 177.78-20L177.78-20Q176.18-20 175.18-18.6L175.18-18.6Q173.53-16.4 173.53-12.7ZM184.43-6.05L184.43-6.05Q184.43-4.15 183.65-2.73 182.88-1.3 181.9-0.63 180.93 0.05 179.63 0.45L179.63 0.45Q177.98 0.95 176.48 0.95L176.48 0.95Q172.28 0.95 170.28-2.2 168.28-5.35 168.28-10.23 168.28-15.1 170.75-18.9 173.23-22.7 178.18-22.7L178.18-22.7Q182.68-22.7 184.28-19.55L184.28-19.55Q184.93-18.35 184.93-17.28 184.93-16.2 184.83-15.58 184.73-14.95 184.13-13.7 183.53-12.45 182.53-11.45 181.53-10.45 179.38-9.55 177.23-8.65 174.33-8.35L174.33-8.35Q173.93-8.35 173.93-8L173.93-8Q173.93-7.55 174.25-6.68 174.58-5.8 174.98-5.2L174.98-5.2Q176.08-3.8 178.23-3.8L178.23-3.8Q180.38-3.8 181.88-5.2L181.88-5.2Q182.68-5.95 183.18-7.05L183.18-7.05Q183.38-7.45 183.7-7.45 184.03-7.45 184.23-6.9 184.43-6.35 184.43-6.05ZM202.38-6.85L202.38-6.85Q202.38-4.7 201.55-3.1 200.73-1.5 199.68-0.75 198.63 0 197.18 0.45L197.18 0.45Q195.28 1.05 193.73 1.05L193.73 1.05Q190.48 1.05 188.33-0.23 186.18-1.5 186.18-4.3L186.18-4.3Q186.18-5.95 187.08-7L187.08-7Q188.48-8.55 190.43-8.55L190.43-8.55Q191.03-8.55 191.03-8L191.03-8Q191.03-7.95 190.8-7.23 190.58-6.5 190.58-5.4 190.58-4.3 191.45-3.45 192.33-2.6 193.58-2.6 194.83-2.6 195.58-3.03 196.33-3.45 196.63-4.1L196.63-4.1Q197.08-5 197.08-5.8L197.08-5.8Q197.08-7.25 195.63-8.3 194.18-9.35 192.43-9.95 190.68-10.55 189.23-11.95 187.78-13.35 187.78-15.45L187.78-15.45Q187.78-19.05 190.05-20.85 192.33-22.65 196.23-22.65L196.23-22.65Q197.93-22.65 199.8-22.18 201.68-21.7 201.68-20.58 201.68-19.45 201.3-18.5 200.93-17.55 200.38-17.55L200.38-17.55Q200.08-17.55 199.98-17.78 199.88-18 199.63-18.3 199.38-18.6 198.43-19.07 197.48-19.55 196.8-19.55 196.13-19.55 195.9-19.53 195.68-19.5 195.13-19.38 194.58-19.25 194.13-19L194.13-19Q192.98-18.35 192.98-17.1L192.98-17.1Q192.98-16.3 193.33-15.93 193.68-15.55 193.88-15.35 194.08-15.15 194.58-14.88 195.08-14.6 195.28-14.5 195.48-14.4 196.18-14.08 196.88-13.75 197.08-13.65L197.08-13.65Q202.38-11.15 202.38-6.85Z" opacity="1" transform="matrix(1,0,0,1,0,0)" fill="#ffffff" class="wordmark-text-0" data-fill-palette-color="primary" id="text-0"></path></svg></g></svg></g><g transform="matrix(1,0,0,1,0,91.21949749553292)"><svg viewBox="0 0 360.71423999999996 21.401842658351892" height="21.401842658351892" width="360.71423999999996"><g transform="matrix(1,0,0,1,0,0)"><svg width="360.71423999999996" viewBox="0.45 -32.45 561.1999999999999 33.300000000000004" height="21.401842658351892" data-palette-color="#083344"><path d="M6.25 0.2L6.65-1.95Q9.15-2.15 10.1-2.58 11.05-3 11.35-4.13 11.65-5.25 11.65-8.1L11.65-8.1 11.65-29.9Q7.4-29.75 5.88-29.43 4.35-29.1 3.8-27.98 3.25-26.85 2.8-23.6L2.8-23.6 0.45-23.4Q1.05-28.15 1.2-32.05L1.2-32.05 1.65-32.45 5.8-31.9 21.3-31.9 25.55-32.45 26-32.05Q26.15-27.95 26.75-23.6L26.75-23.6 24.4-23.4Q23.85-26.7 23.3-27.85 22.75-29 21.35-29.35 19.95-29.7 15.95-29.9L15.95-29.9Q15.65-26.9 15.4-19.3 15.15-11.7 15.15-5.6L15.15-5.6Q15.15-3.75 15.8-2.98 16.45-2.2 18-2.2L18-2.2Q19.5-2.2 20.75-2.35L20.75-2.35 20.9-2.15 20.45 0.15 18.8 0.1 13.1 0Q10.35 0 6.25 0.2L6.25 0.2ZM52.9 0.8Q51.65 0.8 50.22-0.48 48.8-1.75 47.6-3.95L47.6-3.95 42.25-13.65 38.1-13.65 37.95-6.2Q37.95-4.3 38.2-3.48 38.45-2.65 39.15-2.38 39.85-2.1 41.55-2.1L41.55-2.1 41.65-1.9 41.2 0.2Q40.6 0.15 38.8 0.1 37 0.05 35.05 0.05L35.05 0.05Q33.3 0.05 31.95 0.1 30.6 0.15 30.15 0.2L30.15 0.2 30.6-2.05Q32.2-2.25 33-2.6 33.8-2.95 34.1-3.73 34.4-4.5 34.4-6L34.4-6 34.45-27Q34.45-28.6 34.07-29.15 33.7-29.7 32.6-29.7L32.6-29.7Q32.1-29.7 31.6-29.65 31.1-29.6 30.9-29.6L30.9-29.6 30.8-29.8 31.15-32Q31.75-31.95 33.4-31.9 35.05-31.85 36.7-31.85L36.7-31.85Q38.4-31.85 40.27-31.93 42.15-32 42.85-32.05L42.85-32.05Q47.5-32.05 50.2-29.95 52.9-27.85 52.9-24.2L52.9-24.2Q52.9-21.2 50.97-18.7 49.05-16.2 45.55-14.6L45.55-14.6 51.05-5.9Q52.5-3.5 53.87-2.58 55.25-1.65 57.25-1.65L57.25-1.65 57.45-1.45 57.15 0.25 52.9 0.8ZM43.35-15.95Q43.35-15.8 44.85-16.6 46.35-17.4 47.55-19.05 48.75-20.7 48.75-23.3L48.75-23.3Q48.75-29.9 39.6-29.9L39.6-29.9Q39.1-29.9 38.92-29.68 38.75-29.45 38.7-28.75L38.7-28.75Q38.25-21.1 38.2-16.45L38.2-16.45 43.35-15.95ZM74.44 0.5L74.3 0.15 74.5-1.8Q77.05-2 78-2.4 78.94-2.8 78.94-3.7L78.94-3.7Q78.94-4.7 78.5-6.1L78.5-6.1 76.84-11.55Q75.64-11.6 71.64-11.6L71.64-11.6Q69.25-11.6 66.19-11.2L66.19-11.2 64.34-6Q63.89-4.65 63.89-4.05L63.89-4.05Q63.89-2.95 64.59-2.48 65.3-2 66.89-2L66.89-2 69.75-2 69.84-1.8 69.55 0.35Q68.94 0.3 66.8 0.15 64.64 0 62.59 0L62.59 0Q60.74 0 59.17 0.05 57.59 0.1 57.09 0.15L57.09 0.15 57.49-2.2Q58.89-2.35 59.74-3.18 60.59-4 61.39-6.05L61.39-6.05 71.14-31.6 74.3-32.45 74.69-32.45Q75-31.25 76.22-26.9 77.44-22.55 79.22-16.6 81-10.65 82.64-5.65L82.64-5.65Q83.25-3.8 84.25-3.05 85.25-2.3 87.44-2.1L87.44-2.1 87.55-1.9 87.19 0.15Q86.59 0.15 85.02 0.08 83.44 0 81.89 0L81.89 0Q79.5 0 77.27 0.2 75.05 0.4 74.44 0.5L74.44 0.5ZM67.09-13.65L71.5-13.65Q73.3-13.65 76.14-13.9L76.14-13.9 72.19-27 71.84-27 67.09-13.65ZM97.84 0.85Q97.09-1.65 94.47-10.15 91.84-18.65 89.19-26.8L89.19-26.8Q88.74-28.25 87.64-28.93 86.54-29.6 84.59-29.65L84.59-29.65 84.49-29.85 84.84-32Q85.49-32 87.27-31.93 89.04-31.85 90.64-31.85L90.64-31.85Q92.29-31.85 94.82-32.08 97.34-32.3 98.14-32.4L98.14-32.4 98.29-32.05 98.09-30.1Q95.39-29.9 94.52-29.5 93.64-29.1 93.64-28L93.64-28Q93.64-27 96.29-17.63 98.94-8.25 99.94-4.85L99.94-4.85 100.39-4.85Q108.69-26.25 108.69-27.85L108.69-27.85Q108.69-28.9 107.89-29.38 107.09-29.85 105.24-29.85L105.24-29.85 102.64-29.85 102.54-30.05 102.84-32.2Q103.49-32.15 105.72-32 107.94-31.85 109.99-31.85L109.99-31.85Q111.84-31.85 113.42-31.9 114.99-31.95 115.49-32L115.49-32 115.09-29.65Q113.54-29.6 112.94-29.15 112.34-28.7 111.79-27.25L111.79-27.25 101.04-0.25 97.84 0.85ZM141.89-8.6L142.04-8.35Q141.19-4.3 140.69 0.05L140.69 0.05 140.44 0.35Q129.94 0 125.29 0L125.29 0Q121.59 0 118.34 0.5L118.34 0.5 118.64-1.8Q120.89-2.1 121.72-2.98 122.54-3.85 122.54-6L122.54-6 122.59-27Q122.59-28.6 122.22-29.15 121.84-29.7 120.74-29.7L120.74-29.7 119.04-29.6 118.94-29.8 119.29-32Q124.39-31.85 126.24-31.85L126.24-31.85Q132.19-31.85 135.49-31.98 138.79-32.1 141.24-32.45L141.24-32.45 141.39-32.15Q140.49-28.2 140.24-23.85L140.24-23.85 137.84-23.65 137.94-25.8Q137.94-27.55 137.49-28.23 137.04-28.9 135.54-29.13 134.04-29.35 130.29-29.35L130.29-29.35Q128.54-29.35 127.89-29.25 127.24-29.15 127.04-28.78 126.84-28.4 126.79-27.4L126.79-27.4 126.39-17.7 131.54-17.65Q133.49-17.65 137.64-18.2L137.64-18.2 137.84-17.95 137.14-15Q131.59-15.15 130.14-15.15L130.14-15.15Q128.49-15.15 126.29-14.8L126.29-14.8 126.09-5.25Q126.09-3.8 126.34-3.23 126.59-2.65 127.37-2.45 128.14-2.25 130.04-2.25L130.04-2.25Q134.24-2.25 136.02-2.65 137.79-3.05 138.54-4.25 139.29-5.45 139.69-8.35L139.69-8.35 141.89-8.6ZM148.39 0.5L148.69-1.8Q150.64-2.1 151.36-2.98 152.09-3.85 152.09-6L152.09-6 152.14-27Q152.14-28.6 151.76-29.15 151.39-29.7 150.29-29.7L150.29-29.7Q149.79-29.7 149.29-29.65 148.79-29.6 148.59-29.6L148.59-29.6 148.49-29.8 148.84-32Q149.44-31.95 151.09-31.9 152.74-31.85 154.44-31.85L154.44-31.85Q155.79-31.85 157.51-32.02 159.24-32.2 159.79-32.3L159.79-32.3 159.59-30.05Q157.94-29.85 157.31-29.4 156.69-28.95 156.56-28.35 156.44-27.75 156.29-25.4L156.29-25.4Q155.99-21.15 155.84-15.7 155.69-10.25 155.69-6.1L155.69-6.1Q155.69-4.3 155.99-3.53 156.29-2.75 157.11-2.5 157.94-2.25 159.94-2.25L159.94-2.25Q162.99-2.25 164.41-2.75 165.84-3.25 166.56-4.7 167.29-6.15 167.89-9.35L167.89-9.35 170.09-9.6 170.24-9.35Q170.09-8.55 169.61-5.75 169.14-2.95 168.79 0.15L168.79 0.15 168.54 0.45Q167.09 0.35 162.56 0.18 158.04 0 155.09 0L155.09 0Q152.74 0 150.81 0.2 148.89 0.4 148.39 0.5L148.39 0.5ZM192.78 0.85Q192.08-1.65 189.56-10.15 187.03-18.65 184.43-26.8L184.43-26.8Q183.98-28.25 182.88-28.93 181.78-29.6 179.93-29.65L179.93-29.65 179.88-29.85 180.18-32Q180.83-32 182.53-31.93 184.23-31.85 185.83-31.85L185.83-31.85Q188.03-31.85 190.23-32.08 192.43-32.3 193.08-32.4L193.08-32.4 193.23-32.05 193.03-30.1Q190.48-29.9 189.61-29.5 188.73-29.1 188.73-28.05L188.73-28.05Q188.73-27.2 190.11-22.03 191.48-16.85 192.96-11.65 194.43-6.45 194.88-4.85L194.88-4.85 195.18-4.85 202.23-24.05 201.33-26.8Q200.83-28.25 199.78-28.9 198.73-29.55 196.83-29.65L196.83-29.65 196.73-29.85 197.08-32Q197.73-32 199.43-31.93 201.13-31.85 202.73-31.85L202.73-31.85Q204.63-31.85 206.96-32.08 209.28-32.3 209.98-32.4L209.98-32.4 210.13-32.05 209.93-30.1Q207.33-29.9 206.46-29.5 205.58-29.1 205.58-28L205.58-28Q205.58-26.95 208.18-17.6 210.78-8.25 211.78-4.85L211.78-4.85 212.08-4.85Q212.18-5.15 212.31-5.48 212.43-5.8 212.58-6.25L212.58-6.25Q220.18-26.65 220.18-28.1L220.18-28.1Q220.18-29.05 219.38-29.45 218.58-29.85 216.78-29.85L216.78-29.85 214.28-29.85 214.18-30.05 214.53-32.2Q215.18-32.15 217.33-32 219.48-31.85 221.48-31.85L221.48-31.85Q223.28-31.85 224.78-31.9 226.28-31.95 226.78-32L226.78-32 226.43-29.65Q224.93-29.55 224.33-29.13 223.73-28.7 223.23-27.25L223.23-27.25 212.73-0.25 209.63 0.85Q209.13-0.9 207.31-7.2 205.48-13.5 203.38-20.35L203.38-20.35 203.08-20.35 195.98-0.25 192.78 0.85ZM229.63 0.6L229.93-1.7Q232.28-2.15 233.11-3.03 233.93-3.9 233.93-6L233.93-6 233.98-27Q233.98-28.6 233.61-29.15 233.23-29.7 232.13-29.7L232.13-29.7 230.03-29.6 229.93-29.8 230.28-32Q231.08-32 231.53-31.95L231.53-31.95 236.23-31.85Q238.48-31.85 241.98-32.3L241.98-32.3 241.78-30.05Q239.73-29.8 239.01-29.23 238.28-28.65 238.18-27.2L238.18-27.2Q237.88-21.35 237.68-14.98 237.48-8.6 237.48-5.6L237.48-5.6Q237.48-3.55 237.93-2.88 238.38-2.2 239.68-2.2L239.68-2.2Q240.53-2.2 242.33-2.35L242.33-2.35 242.43-2.15 241.98 0.15Q241.28 0.15 240.88 0.1L240.88 0.1Q237.38 0 235.43 0L235.43 0Q232.98 0 229.63 0.6L229.63 0.6ZM250.13 0.2L250.53-1.95Q253.03-2.15 253.98-2.58 254.93-3 255.23-4.13 255.53-5.25 255.53-8.1L255.53-8.1 255.53-29.9Q251.28-29.75 249.75-29.43 248.23-29.1 247.68-27.98 247.13-26.85 246.68-23.6L246.68-23.6 244.33-23.4Q244.93-28.15 245.08-32.05L245.08-32.05 245.53-32.45 249.68-31.9 265.18-31.9 269.43-32.45 269.88-32.05Q270.03-27.95 270.63-23.6L270.63-23.6 268.28-23.4Q267.73-26.7 267.18-27.85 266.63-29 265.23-29.35 263.83-29.7 259.83-29.9L259.83-29.9Q259.53-26.9 259.28-19.3 259.03-11.7 259.03-5.6L259.03-5.6Q259.03-3.75 259.68-2.98 260.33-2.2 261.88-2.2L261.88-2.2Q263.38-2.2 264.63-2.35L264.63-2.35 264.78-2.15 264.33 0.15 262.68 0.1 256.98 0Q254.23 0 250.13 0.2L250.13 0.2ZM274.07 0.6L274.38-1.7Q276.68-2.15 277.48-3.03 278.28-3.9 278.28-6L278.28-6 278.32-27Q278.32-28.6 277.95-29.15 277.57-29.7 276.48-29.7L276.48-29.7 274.78-29.6 274.68-29.8 275.03-32Q275.68-32 276.03-31.95L276.03-31.95Q279.03-31.85 280.57-31.85L280.57-31.85Q282.68-31.85 285.93-32.3L285.93-32.3 285.73-30.05Q284.23-29.8 283.6-29.45 282.98-29.1 282.75-28.28 282.53-27.45 282.43-25.55L282.43-25.55 282.13-17.45 290.53-17.4Q293.68-17.4 297.93-17.9L297.93-17.9 297.98-27Q297.98-28.6 297.6-29.15 297.23-29.7 296.13-29.7L296.13-29.7Q295.43-29.7 294.43-29.6L294.43-29.6 294.32-29.8 294.68-32Q295.23-31.95 296.68-31.9 298.13-31.85 299.57-31.85L299.57-31.85Q301.98-31.85 305.57-32.3L305.57-32.3 305.38-30.05Q303.53-29.8 302.88-29.23 302.23-28.65 302.18-27.2L302.18-27.2Q301.88-21.55 301.68-15.08 301.48-8.6 301.48-5.3L301.48-5.3Q301.48-3.45 301.93-2.83 302.38-2.2 303.68-2.2L303.68-2.2Q304.28-2.2 305.93-2.35L305.93-2.35 306.03-2.15 305.57 0.15Q304.88 0.15 304.48 0.1L304.48 0.1Q301.18 0 299.43 0L299.43 0 293.68 0.1 294.13-2.15Q295.78-2.2 296.55-2.6 297.32-3 297.63-4.1 297.93-5.2 297.93-7.5L297.93-7.5 297.93-15.05 290.32-15.1Q289.07-15.05 286.82-14.93 284.57-14.8 282.03-14.55L282.03-14.55 281.82-5.6Q281.82-3.55 282.28-2.88 282.73-2.2 284.03-2.2L284.03-2.2Q284.63-2.2 286.28-2.35L286.28-2.35 286.38-2.15 285.93 0.15Q285.48 0.1 284.23 0.05 282.98 0 281.68 0L281.68 0Q279.38 0 276.75 0.2 274.13 0.4 274.07 0.6L274.07 0.6ZM325.97 0.6L326.27-1.7Q328.07-2.05 328.87-2.6 329.67-3.15 329.92-4.1 330.17-5.05 330.17-7.1L330.17-7.1 330.17-9.3Q330.17-10.85 329.87-12.03 329.57-13.2 328.72-14.95L328.72-14.95 324.22-24.1Q322.92-26.75 322.37-27.68 321.82-28.6 320.82-29.15 319.82-29.7 317.92-29.85L317.92-29.85 317.82-30.05 318.12-32Q318.67-31.95 320.22-31.9 321.77-31.85 323.62-31.85L323.62-31.85Q325.37-31.85 327.69-32.02 330.02-32.2 330.72-32.25L330.72-32.25 330.87-31.9 330.72-30.15Q328.47-29.95 327.69-29.58 326.92-29.2 326.92-28.35L326.92-28.35Q326.92-27.7 328.17-24.8 329.42-21.9 330.75-19.1 332.07-16.3 332.52-15.45L332.52-15.45 332.77-15.45 338.47-26.05Q339.27-27.5 339.27-28.55L339.27-28.55Q339.27-29.85 336.12-30.05L336.12-30.05 336.02-30.25 336.32-32.2Q336.92-32.15 338.82-32 340.72-31.85 341.87-31.85L341.87-31.85Q343.07-31.85 344.54-31.93 346.02-32 346.47-32.05L346.47-32.05 346.67-31.7 346.37-29.85Q344.77-29.55 343.87-29.03 342.97-28.5 342.29-27.53 341.62-26.55 340.32-24.25L340.32-24.25Q340.02-23.65 339.82-23.35L339.82-23.35 334.82-14.55Q334.17-13.4 334-11.95 333.82-10.5 333.72-6.7L333.72-6.7 333.72-5.6Q333.67-3.65 334.14-2.93 334.62-2.2 335.92-2.2L335.92-2.2Q336.72-2.2 337.42-2.25 338.12-2.3 338.37-2.35L338.37-2.35 338.47-2.15 338.02 0.15Q337.32 0.1 335.44 0.05 333.57 0 331.67 0L331.67 0Q330.12 0 328.32 0.25 326.52 0.5 325.97 0.6L325.97 0.6ZM360.52 0.6Q356.47 0.6 353.32-1.35 350.17-3.3 348.42-6.83 346.67-10.35 346.67-14.85L346.67-14.85Q346.67-19.75 348.84-23.78 351.02-27.8 354.79-30.13 358.57-32.45 363.12-32.45L363.12-32.45Q367.27-32.45 370.47-30.5 373.67-28.55 375.47-25.05 377.27-21.55 377.27-17.05L377.27-17.05Q377.27-12.15 375.04-8.1 372.82-4.05 368.99-1.73 365.17 0.6 360.52 0.6L360.52 0.6ZM362.07-1.95Q365.22-1.95 367.67-3.6 370.12-5.25 371.47-8.2 372.82-11.15 372.82-14.95L372.82-14.95Q372.82-19.2 371.37-22.48 369.92-25.75 367.34-27.6 364.77-29.45 361.42-29.45L361.42-29.45Q358.37-29.45 355.99-27.8 353.62-26.15 352.29-23.2 350.97-20.25 350.97-16.45L350.97-16.45Q350.97-12.2 352.37-8.93 353.77-5.65 356.29-3.8 358.82-1.95 362.07-1.95L362.07-1.95ZM395.62 0.6Q390.37 0.6 387.51-2.27 384.66-5.15 384.66-10.45L384.66-10.45 384.66-27Q384.66-28.6 384.29-29.15 383.91-29.7 382.81-29.7L382.81-29.7Q382.31-29.7 381.81-29.65 381.31-29.6 381.12-29.6L381.12-29.6 381.01-29.8 381.37-32Q381.96-31.95 383.64-31.9 385.31-31.85 387.01-31.85L387.01-31.85Q388.37-31.85 390.06-32.02 391.76-32.2 392.26-32.3L392.26-32.3 392.06-30.05Q390.21-29.8 389.59-29.23 388.96-28.65 388.87-27.2L388.87-27.2 388.46-12.5Q388.46-7.55 390.62-4.9 392.76-2.25 396.81-2.25L396.81-2.25Q400.91-2.25 403.06-4.42 405.21-6.6 405.21-10.7L405.21-10.7Q405.16-14.7 405.06-19.83 404.96-24.95 404.91-27L404.91-27Q404.81-28.75 404.49-29.23 404.16-29.7 403.06-29.7L403.06-29.7Q402.46-29.7 401.81-29.65 401.16-29.6 400.91-29.6L400.91-29.6 400.81-29.8 401.16-32Q401.76-31.95 403.44-31.9 405.12-31.85 406.81-31.85L406.81-31.85Q408.16-31.85 409.69-32.02 411.21-32.2 411.66-32.3L411.66-32.3 411.46-30.05Q409.96-29.85 409.24-29.58 408.51-29.3 408.26-28.78 408.01-28.25 408.01-27.2L408.01-27.2 408.01-10.4Q408.01-5.15 404.76-2.27 401.51 0.6 395.62 0.6L395.62 0.6ZM438.91 0.8Q437.66 0.8 436.24-0.48 434.81-1.75 433.61-3.95L433.61-3.95 428.26-13.65 424.11-13.65 423.96-6.2Q423.96-4.3 424.21-3.48 424.46-2.65 425.16-2.38 425.86-2.1 427.56-2.1L427.56-2.1 427.66-1.9 427.21 0.2Q426.61 0.15 424.81 0.1 423.01 0.05 421.06 0.05L421.06 0.05Q419.31 0.05 417.96 0.1 416.61 0.15 416.16 0.2L416.16 0.2 416.61-2.05Q418.21-2.25 419.01-2.6 419.81-2.95 420.11-3.73 420.41-4.5 420.41-6L420.41-6 420.46-27Q420.46-28.6 420.09-29.15 419.71-29.7 418.61-29.7L418.61-29.7Q418.11-29.7 417.61-29.65 417.11-29.6 416.91-29.6L416.91-29.6 416.81-29.8 417.16-32Q417.76-31.95 419.41-31.9 421.06-31.85 422.71-31.85L422.71-31.85Q424.41-31.85 426.29-31.93 428.16-32 428.86-32.05L428.86-32.05Q433.51-32.05 436.21-29.95 438.91-27.85 438.91-24.2L438.91-24.2Q438.91-21.2 436.99-18.7 435.06-16.2 431.56-14.6L431.56-14.6 437.06-5.9Q438.51-3.5 439.89-2.58 441.26-1.65 443.26-1.65L443.26-1.65 443.46-1.45 443.16 0.25 438.91 0.8ZM429.36-15.95Q429.36-15.8 430.86-16.6 432.36-17.4 433.56-19.05 434.76-20.7 434.76-23.3L434.76-23.3Q434.76-29.9 425.61-29.9L425.61-29.9Q425.11-29.9 424.94-29.68 424.76-29.45 424.71-28.75L424.71-28.75Q424.26-21.1 424.21-16.45L424.21-16.45 429.36-15.95ZM460.91-27Q460.91-28.6 460.53-29.15 460.16-29.7 459.06-29.7L459.06-29.7Q458.56-29.7 458.06-29.65 457.56-29.6 457.36-29.6L457.36-29.6 457.26-29.8 457.61-32Q458.21-31.95 459.86-31.9 461.51-31.85 463.16-31.85L463.16-31.85Q464.51-31.85 466.23-32.02 467.96-32.2 468.51-32.3L468.51-32.3 468.31-30.05Q466.46-29.75 465.76-29.13 465.06-28.5 465.01-27.05L465.01-27.05 464.41-5.6Q464.36-3.6 464.81-2.9 465.26-2.2 466.61-2.2L466.61-2.2Q467.36-2.2 468.01-2.25 468.66-2.3 468.86-2.35L468.86-2.35 468.96-2.15 468.51 0.15Q467.86 0.1 466.06 0.05 464.26 0 462.36 0L462.36 0 456.61 0.05 457.11-2.2Q458.71-2.35 459.48-2.7 460.26-3.05 460.56-3.8 460.86-4.55 460.86-6L460.86-6 460.91-27ZM465.91-16.45L474.86-25.75Q476.41-27.3 476.41-28.35L476.41-28.35Q476.41-29.65 473.26-29.85L473.26-29.85 473.16-30.05 473.51-32.2Q474.11-32.15 475.98-32 477.86-31.85 479.01-31.85L479.01-31.85Q480.21-31.85 481.68-31.93 483.16-32 483.61-32.05L483.61-32.05 483.81-31.7 483.46-29.65Q482.16-29.4 481.06-28.6 479.96-27.8 477.71-25.45L477.71-25.45 469.66-17 478.06-6.05Q479.86-3.7 481.28-2.75 482.71-1.8 484.46-1.8L484.46-1.8 484.66-1.6 484.36 0.1Q483.81 0.2 482.18 0.45 480.56 0.7 480.21 0.7L480.21 0.7Q479.01 0.7 477.56-0.43 476.11-1.55 474.61-3.6L474.61-3.6 465.86-15.75 465.91-16.45ZM487.95 0.6L488.25-1.7Q490.6-2.15 491.43-3.03 492.25-3.9 492.25-6L492.25-6 492.3-27Q492.3-28.6 491.93-29.15 491.55-29.7 490.45-29.7L490.45-29.7 488.35-29.6 488.25-29.8 488.6-32Q489.4-32 489.85-31.95L489.85-31.95 494.55-31.85Q496.8-31.85 500.3-32.3L500.3-32.3 500.1-30.05Q498.05-29.8 497.33-29.23 496.6-28.65 496.5-27.2L496.5-27.2Q496.2-21.35 496-14.98 495.8-8.6 495.8-5.6L495.8-5.6Q495.8-3.55 496.25-2.88 496.7-2.2 498-2.2L498-2.2Q498.85-2.2 500.65-2.35L500.65-2.35 500.75-2.15 500.3 0.15Q499.6 0.15 499.2 0.1L499.2 0.1Q495.7 0 493.75 0L493.75 0Q491.3 0 487.95 0.6L487.95 0.6ZM519.05 0.6Q518.3 0.5 515.88 0.25 513.45 0 511.85 0L511.85 0Q510.3 0 508.48 0.25 506.65 0.5 506.1 0.6L506.1 0.6 506.4-1.7Q508.7-2.15 509.5-3.03 510.3-3.9 510.3-6L510.3-6 510.35-27Q510.35-28.6 509.98-29.15 509.6-29.7 508.5-29.7L508.5-29.7Q508-29.7 507.5-29.65 507-29.6 506.8-29.6L506.8-29.6 506.7-29.8 507.05-32Q507.6-31.95 509.15-31.9 510.7-31.85 512.3-31.85L512.3-31.85Q514.45-31.85 516.75-31.93 519.05-32 519.9-32.05L519.9-32.05Q524.7-32.05 528.45-30.18 532.2-28.3 534.28-24.9 536.35-21.5 536.35-17.1L536.35-17.1Q536.35-12.2 534.05-8.15 531.75-4.1 527.8-1.75 523.85 0.6 519.05 0.6L519.05 0.6ZM516.45-29.6Q515.4-29.6 515.05-29.38 514.7-29.15 514.65-28.5L514.65-28.5Q513.9-9.25 513.9-6.55L513.9-6.55Q513.9-4.65 514.43-3.7 514.95-2.75 516.28-2.35 517.6-1.95 520.2-1.95L520.2-1.95Q525.6-1.95 528.7-5.68 531.8-9.4 531.8-15.9L531.8-15.9Q531.8-22.5 527.83-26.05 523.85-29.6 516.45-29.6L516.45-29.6ZM549.3 0.6Q547.2 0.6 545.45 0.23 543.7-0.15 542.57-0.6 541.45-1.05 541.45-1.1L541.45-1.1 541.2-1.6Q541.25-1.9 541.4-3.1 541.55-4.3 541.67-6.23 541.8-8.15 541.8-10.3L541.8-10.3 544.05-10.55Q544.05-6.8 544.55-5 545.05-3.2 546.4-2.53 547.75-1.85 550.55-1.85L550.55-1.85Q553.7-1.85 555.6-3.33 557.5-4.8 557.5-7.35L557.5-7.35Q557.5-8.85 556.47-10.05 555.45-11.25 554.05-12.1 552.65-12.95 549.9-14.4L549.9-14.4Q547.3-15.75 545.65-16.88 544-18 542.87-19.55 541.75-21.1 541.75-23.15L541.75-23.15Q541.75-25.75 543.27-27.88 544.8-30 547.42-31.23 550.05-32.45 553.25-32.45L553.25-32.45Q555.25-32.45 556.95-32.18 558.65-31.9 559.65-31.6 560.65-31.3 560.9-31.2L560.9-31.2 561.05-30.9Q561-30.6 560.8-29.5 560.6-28.4 560.35-26.45 560.1-24.5 559.95-22.45L559.95-22.45 558-22.25 557.7-22.5Q557.75-22.7 557.8-23.43 557.85-24.15 557.85-25.1L557.85-25.1Q557.85-27.75 556.55-28.75 555.25-29.75 551.9-29.75L551.9-29.75Q549.15-29.75 547.37-28.38 545.6-27 545.6-24.95L545.6-24.95Q545.6-22.95 547.32-21.48 549.05-20 552.4-18.25L552.4-18.25Q555.65-16.6 557.35-15.53 559.05-14.45 560.35-12.85 561.65-11.25 561.65-9.15L561.65-9.15Q561.65-6.35 560.07-4.13 558.5-1.9 555.7-0.65 552.9 0.6 549.3 0.6L549.3 0.6Z" opacity="1" transform="matrix(1,0,0,1,0,0)" fill="#ffffff" class="slogan-text-1" data-fill-palette-color="secondary" id="text-1"></path></svg></g></svg></g></svg></g></svg></g><g><svg viewBox="0 0 144.40418707780307 155.6426920926688" height="155.6426920926688" width="144.40418707780307"><g><svg xmlns="http://www.w3.org/2000/svg" xmlns:xlink="http://www.w3.org/1999/xlink" version="1.1" x="0" y="0" viewBox="16.05 13.3 68.10000000000001 73.4" style="enable-background:new 0 0 100 100;" xml:space="preserve" height="155.6426920926688" width="144.40418707780307" class="icon-icon-0" data-fill-palette-color="accent" id="icon-0"><g fill="#083344" data-fill-palette-color="accent"><path d="M51.2 32.6L61.3 16.3C61.6 15.8 61.4 15.2 61 14.9S59.9 14.8 59.6 15.2L51.1 28.8V14.3C51.1 13.7 50.7 13.3 50.1 13.3S49.1 13.7 49.1 14.3V29.3L40.3 15.2C40 14.7 39.4 14.6 38.9 14.9S38.3 15.8 38.6 16.3L48.7 32.6 16.2 85.2C16 85.5 16 85.9 16.2 86.2S16.7 86.7 17.1 86.7H83.1C83.5 86.7 83.8 86.5 84 86.2S84.2 85.5 84 85.2zM50 34.4L63.4 56H36.6zM36.6 84.7L50 63.2 63.4 84.7zM65.7 84.7C65.7 84.6 65.7 84.6 65.6 84.5L50.8 60.7C50.4 60.1 49.5 60.1 49.1 60.7L34.4 84.5C34.4 84.6 34.3 84.6 34.3 84.7H18.8L35.5 57.8C35.7 57.9 35.9 58 36.1 58H64.1C64.3 58 64.4 58 64.5 57.9L81.1 84.7z" fill="#ffffff" data-fill-palette-color="accent"></path></g></svg></g></svg></g></svg></g><defs></defs></svg><rect width="395.52" height="110.4516640913902" fill="none" stroke="none" visibility="hidden"></rect></g></svg></g></svg>